<svg width="54" height="54" viewBox="0 0 54 54" fill="none" xmlns="http://www.w3.org/2000/svg">
<circle cx="27" cy="27" r="27" fill="#EDEDED"/>
<path d="M33.25 37H20.75V38.25C20.75 38.5815 20.6183 38.8995 20.3839 39.1339C20.1495 39.3683 19.8315 39.5 19.5 39.5H17C16.6685 39.5 16.3505 39.3683 16.1161 39.1339C15.8817 38.8995 15.75 38.5815 15.75 38.25V27H14.5V22H15.75V18.25C15.75 17.587 16.0134 16.9511 16.4822 16.4822C16.9511 16.0134 17.587 15.75 18.25 15.75H35.75C36.413 15.75 37.0489 16.0134 37.5178 16.4822C37.9866 16.9511 38.25 17.587 38.25 18.25V22H39.5V27H38.25V38.25C38.25 38.5815 38.1183 38.8995 37.8839 39.1339C37.6495 39.3683 37.3315 39.5 37 39.5H34.5C34.1685 39.5 33.8505 39.3683 33.6161 39.1339C33.3817 38.8995 33.25 38.5815 33.25 38.25V37ZM18.25 18.25V27H35.75V18.25H18.25ZM21.375 34.5C21.8723 34.5 22.3492 34.3025 22.7008 33.9508C23.0525 33.5992 23.25 33.1223 23.25 32.625C23.25 32.1277 23.0525 31.6508 22.7008 31.2992C22.3492 30.9475 21.8723 30.75 21.375 30.75C20.8777 30.75 20.4008 30.9475 20.0492 31.2992C19.6975 31.6508 19.5 32.1277 19.5 32.625C19.5 33.1223 19.6975 33.5992 20.0492 33.9508C20.4008 34.3025 20.8777 34.5 21.375 34.5ZM32.625 34.5C33.1223 34.5 33.5992 34.3025 33.9508 33.9508C34.3025 33.5992 34.5 33.1223 34.5 32.625C34.5 32.1277 34.3025 31.6508 33.9508 31.2992C33.5992 30.9475 33.1223 30.75 32.625 30.75C32.1277 30.75 31.6508 30.9475 31.2992 31.2992C30.9475 31.6508 30.75 32.1277 30.75 32.625C30.75 33.1223 30.9475 33.5992 31.2992 33.9508C31.6508 34.3025 32.1277 34.5 32.625 34.5Z" fill="#F04935"/>
</svg>
