<svg width="44" height="44" viewBox="0 0 44 44" fill="none" xmlns="http://www.w3.org/2000/svg">
<path d="M31.1665 36.6667H12.8332V38.5C12.8332 38.9862 12.64 39.4526 12.2962 39.7964C11.9524 40.1402 11.4861 40.3333 10.9998 40.3333H7.33317C6.84694 40.3333 6.38062 40.1402 6.03681 39.7964C5.69299 39.4526 5.49984 38.9862 5.49984 38.5V22H3.6665V14.6667H5.49984V9.16667C5.49984 8.19421 5.88615 7.26158 6.57378 6.57394C7.26141 5.88631 8.19404 5.5 9.1665 5.5H34.8332C35.8056 5.5 36.7383 5.88631 37.4259 6.57394C38.1135 7.26158 38.4998 8.19421 38.4998 9.16667V14.6667H40.3332V22H38.4998V38.5C38.4998 38.9862 38.3067 39.4526 37.9629 39.7964C37.6191 40.1402 37.1527 40.3333 36.6665 40.3333H32.9998C32.5136 40.3333 32.0473 40.1402 31.7035 39.7964C31.3597 39.4526 31.1665 38.9862 31.1665 38.5V36.6667ZM9.1665 9.16667V22H34.8332V9.16667H9.1665ZM13.7498 33C14.4792 33 15.1787 32.7103 15.6944 32.1945C16.2101 31.6788 16.4998 30.9793 16.4998 30.25C16.4998 29.5207 16.2101 28.8212 15.6944 28.3055C15.1787 27.7897 14.4792 27.5 13.7498 27.5C13.0205 27.5 12.321 27.7897 11.8053 28.3055C11.2896 28.8212 10.9998 29.5207 10.9998 30.25C10.9998 30.9793 11.2896 31.6788 11.8053 32.1945C12.321 32.7103 13.0205 33 13.7498 33V33ZM30.2498 33C30.9792 33 31.6787 32.7103 32.1944 32.1945C32.7101 31.6788 32.9998 30.9793 32.9998 30.25C32.9998 29.5207 32.7101 28.8212 32.1944 28.3055C31.6787 27.7897 30.9792 27.5 30.2498 27.5C29.5205 27.5 28.821 27.7897 28.3053 28.3055C27.7896 28.8212 27.4998 29.5207 27.4998 30.25C27.4998 30.9793 27.7896 31.6788 28.3053 32.1945C28.821 32.7103 29.5205 33 30.2498 33Z" fill="#F04935"/>
</svg>
