<svg width="34" height="38" viewBox="0 0 34 38" fill="none" xmlns="http://www.w3.org/2000/svg">
<path d="M31.6667 37.3333H2.33333C1.8471 37.3333 1.38079 37.1402 1.03697 36.7964C0.693154 36.4526 0.5 35.9862 0.5 35.5V2.50001C0.5 2.01377 0.693154 1.54746 1.03697 1.20364C1.38079 0.859826 1.8471 0.666672 2.33333 0.666672H31.6667C32.1529 0.666672 32.6192 0.859826 32.963 1.20364C33.3068 1.54746 33.5 2.01377 33.5 2.50001V35.5C33.5 35.9862 33.3068 36.4526 32.963 36.7964C32.6192 37.1402 32.1529 37.3333 31.6667 37.3333ZM9.66667 9.83334V13.5H24.3333V9.83334H9.66667ZM9.66667 17.1667V20.8333H24.3333V17.1667H9.66667ZM9.66667 24.5V28.1667H18.8333V24.5H9.66667Z" fill="#F04935"/>
</svg>
