<svg width="38" height="38" viewBox="0 0 38 38" fill="none" xmlns="http://www.w3.org/2000/svg">
<path d="M19 17.1667C21.4311 17.1667 23.7627 18.1325 25.4818 19.8516C27.2009 21.5707 28.1666 23.9023 28.1666 26.3334V37.3334H9.83329V26.3334C9.83329 23.9023 10.7991 21.5707 12.5181 19.8516C14.2372 18.1325 16.5688 17.1667 19 17.1667ZM6.69463 22.6777C6.40287 23.6619 6.23052 24.6775 6.18129 25.7027L6.16663 26.3334V37.3334H0.666626V29.0834C0.666265 27.5023 1.24968 25.9767 2.30496 24.7993C3.36023 23.6219 4.81307 22.8755 6.38479 22.7034L6.69646 22.6777H6.69463ZM31.3053 22.6777C32.9368 22.7772 34.4689 23.4953 35.5891 24.6857C36.7092 25.876 37.3331 27.4489 37.3333 29.0834V37.3334H31.8333V26.3334C31.8333 25.0629 31.65 23.8364 31.3053 22.6777ZM7.08329 11.6667C8.29887 11.6667 9.46466 12.1496 10.3242 13.0092C11.1837 13.8687 11.6666 15.0345 11.6666 16.2501C11.6666 17.4657 11.1837 18.6314 10.3242 19.491C9.46466 20.3505 8.29887 20.8334 7.08329 20.8334C5.86772 20.8334 4.70193 20.3505 3.84239 19.491C2.98285 18.6314 2.49996 17.4657 2.49996 16.2501C2.49996 15.0345 2.98285 13.8687 3.84239 13.0092C4.70193 12.1496 5.86772 11.6667 7.08329 11.6667ZM30.9166 11.6667C32.1322 11.6667 33.298 12.1496 34.1575 13.0092C35.0171 13.8687 35.5 15.0345 35.5 16.2501C35.5 17.4657 35.0171 18.6314 34.1575 19.491C33.298 20.3505 32.1322 20.8334 30.9166 20.8334C29.7011 20.8334 28.5353 20.3505 27.6757 19.491C26.8162 18.6314 26.3333 17.4657 26.3333 16.2501C26.3333 15.0345 26.8162 13.8687 27.6757 13.0092C28.5353 12.1496 29.7011 11.6667 30.9166 11.6667ZM19 0.666748C20.9449 0.666748 22.8101 1.43937 24.1854 2.81463C25.5607 4.1899 26.3333 6.05516 26.3333 8.00008C26.3333 9.945 25.5607 11.8103 24.1854 13.1855C22.8101 14.5608 20.9449 15.3334 19 15.3334C17.055 15.3334 15.1898 14.5608 13.8145 13.1855C12.4392 11.8103 11.6666 9.945 11.6666 8.00008C11.6666 6.05516 12.4392 4.1899 13.8145 2.81463C15.1898 1.43937 17.055 0.666748 19 0.666748Z" fill="#F04935"/>
</svg>
