<svg width="34" height="38" viewBox="0 0 34 38" fill="none" xmlns="http://www.w3.org/2000/svg">
<path d="M6 4.33332V11.6667H28V4.33332H31.6795C32.6842 4.33332 33.5 5.14916 33.5 6.15382V35.5128C33.5 36.5175 32.6842 37.3333 31.6795 37.3333H2.3205C1.31583 37.3333 0.5 36.5175 0.5 35.5128V6.15382C0.5 5.14916 1.31583 4.33332 2.3205 4.33332H6ZM11.5 28.1667H7.83333V31.8333H11.5V28.1667ZM11.5 22.6667H7.83333V26.3333H11.5V22.6667ZM11.5 17.1667H7.83333V20.8333H11.5V17.1667ZM24.3333 0.666656V7.99999H9.66667V0.666656H24.3333Z" fill="#F04935"/>
</svg>
