<svg width="42" height="42" viewBox="0 0 42 42" fill="none" xmlns="http://www.w3.org/2000/svg">
<path d="M28.3335 0.833328C23.9335 0.833328 20.0468 3.05166 17.7368 6.425C17.7552 6.40666 17.7552 6.38833 17.7735 6.36999C17.0402 6.33333 16.2702 6.33333 15.5002 6.33333C7.39683 6.33333 0.833496 7.24999 0.833496 13.6667V32C0.833496 33.6133 1.5485 35.0617 2.66683 36.07V39.3333C2.66683 40.3417 3.49183 41.1667 4.50016 41.1667H6.3335C7.34183 41.1667 8.16683 40.3417 8.16683 39.3333V37.5H22.8335V39.3333C22.8335 40.3417 23.6585 41.1667 24.6668 41.1667H26.5002C27.5085 41.1667 28.3335 40.3417 28.3335 39.3333V36.07C29.4518 35.0617 30.1668 33.6133 30.1668 32V26.3533C36.3818 25.455 41.1668 20.1383 41.1668 13.6667C41.1668 6.57166 35.4285 0.833328 28.3335 0.833328ZM7.25016 33.8333C5.7285 33.8333 4.50016 32.605 4.50016 31.0833C4.50016 29.5617 5.7285 28.3333 7.25016 28.3333C8.77183 28.3333 10.0002 29.5617 10.0002 31.0833C10.0002 32.605 8.77183 33.8333 7.25016 33.8333ZM4.50016 22.8333V13.6667H15.5002C15.5002 17.26 16.9852 20.505 19.3685 22.8333H4.50016ZM23.7502 33.8333C22.2285 33.8333 21.0002 32.605 21.0002 31.0833C21.0002 29.5617 22.2285 28.3333 23.7502 28.3333C25.2718 28.3333 26.5002 29.5617 26.5002 31.0833C26.5002 32.605 25.2718 33.8333 23.7502 33.8333ZM28.3335 22.8333C23.2735 22.8333 19.1668 18.7267 19.1668 13.6667C19.1668 8.60666 23.2735 4.49999 28.3335 4.49999C33.3935 4.49999 37.5002 8.60666 37.5002 13.6667C37.5002 18.7267 33.3935 22.8333 28.3335 22.8333ZM29.2502 6.33333H26.5002V15.5L33.1368 19.46L34.5118 17.205L29.2502 14.125V6.33333Z" fill="#F04935"/>
</svg>
