<svg width="34" height="34" viewBox="0 0 34 34" fill="none" xmlns="http://www.w3.org/2000/svg">
<circle cx="17" cy="17" r="17" fill="#F04935"/>
<path d="M11.0007 11H23.0007C23.1775 11 23.347 11.0702 23.4721 11.1953C23.5971 11.3203 23.6673 11.4899 23.6673 11.6667V22.3333C23.6673 22.5101 23.5971 22.6797 23.4721 22.8047C23.347 22.9298 23.1775 23 23.0007 23H11.0007C10.8238 23 10.6543 22.9298 10.5292 22.8047C10.4042 22.6797 10.334 22.5101 10.334 22.3333V11.6667C10.334 11.4899 10.4042 11.3203 10.5292 11.1953C10.6543 11.0702 10.8238 11 11.0007 11ZM17.0407 16.7887L12.766 13.1587L11.9027 14.1747L17.0493 18.5447L22.1033 14.1713L21.2313 13.1627L17.0413 16.7887H17.0407Z" fill="white"/>
</svg>
