<svg width="150" height="24" viewBox="0 0 150 24" fill="none" xmlns="http://www.w3.org/2000/svg">
<path d="M41.2784 18V6.36364H48.5739V7.875H43.0341V11.4205H48.1932V12.9261H43.0341V16.4886H48.642V18H41.2784ZM52.1236 9.27273L54.0497 12.6705L55.9929 9.27273H57.8509L55.1293 13.6364L57.8736 18H56.0156L54.0497 14.7386L52.0895 18H50.2259L52.9418 13.6364L50.2599 9.27273H52.1236ZM59.5952 21.2727V9.27273H61.2543V10.6875H61.3963C61.4948 10.5057 61.6368 10.2955 61.8224 10.0568C62.008 9.81818 62.2656 9.60985 62.5952 9.43182C62.9247 9.25 63.3603 9.15909 63.902 9.15909C64.6065 9.15909 65.2353 9.33712 65.7884 9.69318C66.3414 10.0492 66.7751 10.5625 67.0895 11.233C67.4077 11.9034 67.5668 12.7102 67.5668 13.6534C67.5668 14.5966 67.4096 15.4053 67.0952 16.0795C66.7808 16.75 66.349 17.267 65.7997 17.6307C65.2505 17.9905 64.6236 18.1705 63.919 18.1705C63.3887 18.1705 62.955 18.0814 62.6179 17.9034C62.2846 17.7254 62.0232 17.517 61.8338 17.2784C61.6444 17.0398 61.4986 16.8277 61.3963 16.642H61.294V21.2727H59.5952ZM61.2599 13.6364C61.2599 14.25 61.349 14.7879 61.527 15.25C61.705 15.7121 61.9626 16.0739 62.2997 16.3352C62.6368 16.5928 63.0497 16.7216 63.5384 16.7216C64.0459 16.7216 64.4702 16.5871 64.8111 16.3182C65.152 16.0455 65.4096 15.6761 65.5838 15.2102C65.7618 14.7443 65.8509 14.2197 65.8509 13.6364C65.8509 13.0606 65.7637 12.5436 65.5895 12.0852C65.419 11.6269 65.1615 11.2652 64.8168 11C64.4759 10.7348 64.0497 10.6023 63.5384 10.6023C63.0459 10.6023 62.6293 10.7292 62.2884 10.983C61.9512 11.2367 61.6955 11.5909 61.5213 12.0455C61.3471 12.5 61.2599 13.0303 61.2599 13.6364ZM73.1463 18.1761C72.3281 18.1761 71.6141 17.9886 71.0043 17.6136C70.3944 17.2386 69.9209 16.714 69.5838 16.0398C69.2467 15.3655 69.0781 14.5777 69.0781 13.6761C69.0781 12.7708 69.2467 11.9792 69.5838 11.3011C69.9209 10.6231 70.3944 10.0966 71.0043 9.72159C71.6141 9.34659 72.3281 9.15909 73.1463 9.15909C73.9645 9.15909 74.6785 9.34659 75.2884 9.72159C75.8982 10.0966 76.3717 10.6231 76.7088 11.3011C77.0459 11.9792 77.2145 12.7708 77.2145 13.6761C77.2145 14.5777 77.0459 15.3655 76.7088 16.0398C76.3717 16.714 75.8982 17.2386 75.2884 17.6136C74.6785 17.9886 73.9645 18.1761 73.1463 18.1761ZM73.152 16.75C73.6823 16.75 74.1217 16.6098 74.4702 16.3295C74.8187 16.0492 75.0762 15.6761 75.2429 15.2102C75.4134 14.7443 75.4986 14.2311 75.4986 13.6705C75.4986 13.1136 75.4134 12.6023 75.2429 12.1364C75.0762 11.6667 74.8187 11.2898 74.4702 11.0057C74.1217 10.7216 73.6823 10.5795 73.152 10.5795C72.6179 10.5795 72.1747 10.7216 71.8224 11.0057C71.474 11.2898 71.2145 11.6667 71.044 12.1364C70.8774 12.6023 70.794 13.1136 70.794 13.6705C70.794 14.2311 70.8774 14.7443 71.044 15.2102C71.2145 15.6761 71.474 16.0492 71.8224 16.3295C72.1747 16.6098 72.6179 16.75 73.152 16.75ZM79.1108 18V9.27273H80.7528V10.6591H80.8438C81.0028 10.1894 81.2831 9.82008 81.6847 9.55114C82.09 9.27841 82.5483 9.14205 83.0597 9.14205C83.1657 9.14205 83.2907 9.14583 83.4347 9.15341C83.5824 9.16098 83.6979 9.17045 83.7812 9.18182V10.8068C83.7131 10.7879 83.5919 10.767 83.4176 10.7443C83.2434 10.7178 83.0691 10.7045 82.8949 10.7045C82.4934 10.7045 82.1354 10.7898 81.821 10.9602C81.5104 11.1269 81.2642 11.3598 81.0824 11.6591C80.9006 11.9545 80.8097 12.2917 80.8097 12.6705V18H79.1108ZM89.8409 9.27273V10.6364H85.0739V9.27273H89.8409ZM86.3523 7.18182H88.0511V15.4375C88.0511 15.767 88.1004 16.0152 88.1989 16.1818C88.2973 16.3447 88.4242 16.4564 88.5795 16.517C88.7386 16.5739 88.911 16.6023 89.0966 16.6023C89.233 16.6023 89.3523 16.5928 89.4545 16.5739C89.5568 16.5549 89.6364 16.5398 89.6932 16.5284L90 17.9318C89.9015 17.9697 89.7614 18.0076 89.5795 18.0455C89.3977 18.0871 89.1705 18.1098 88.8977 18.1136C88.4508 18.1212 88.0341 18.0417 87.6477 17.875C87.2614 17.7083 86.9489 17.4508 86.7102 17.1023C86.4716 16.7538 86.3523 16.3163 86.3523 15.7898V7.18182ZM98.4943 18.1932C97.9413 18.1932 97.4413 18.0909 96.9943 17.8864C96.5473 17.678 96.1932 17.3769 95.9318 16.983C95.6742 16.589 95.5455 16.1061 95.5455 15.5341C95.5455 15.0417 95.6402 14.6364 95.8295 14.3182C96.0189 14 96.2746 13.7481 96.5966 13.5625C96.9186 13.3769 97.2784 13.2367 97.6761 13.142C98.0739 13.0473 98.4792 12.9754 98.892 12.9261C99.4148 12.8655 99.839 12.8163 100.165 12.7784C100.491 12.7367 100.727 12.6705 100.875 12.5795C101.023 12.4886 101.097 12.3409 101.097 12.1364V12.0966C101.097 11.6004 100.956 11.2159 100.676 10.9432C100.4 10.6705 99.9867 10.5341 99.4375 10.5341C98.8655 10.5341 98.4148 10.661 98.0852 10.9148C97.7595 11.1648 97.5341 11.4432 97.4091 11.75L95.8125 11.3864C96.0019 10.8561 96.2784 10.428 96.642 10.1023C97.0095 9.77273 97.4318 9.53409 97.9091 9.38636C98.3864 9.23485 98.8883 9.15909 99.4148 9.15909C99.7633 9.15909 100.133 9.20076 100.523 9.28409C100.917 9.36364 101.284 9.51136 101.625 9.72727C101.97 9.94318 102.252 10.2519 102.472 10.6534C102.691 11.0511 102.801 11.5682 102.801 12.2045V18H101.142V16.8068H101.074C100.964 17.0265 100.799 17.2424 100.58 17.4545C100.36 17.6667 100.078 17.8428 99.733 17.983C99.3883 18.1231 98.9754 18.1932 98.4943 18.1932ZM98.8636 16.8295C99.3333 16.8295 99.7348 16.7367 100.068 16.5511C100.405 16.3655 100.661 16.1231 100.835 15.8239C101.013 15.5208 101.102 15.197 101.102 14.8523V13.7273C101.042 13.7879 100.924 13.8447 100.75 13.8977C100.58 13.947 100.384 13.9905 100.165 14.0284C99.9451 14.0625 99.7311 14.0947 99.5227 14.125C99.3144 14.1515 99.1402 14.1742 99 14.1932C98.6705 14.2348 98.3693 14.3049 98.0966 14.4034C97.8277 14.5019 97.6117 14.6439 97.4489 14.8295C97.2898 15.0114 97.2102 15.2538 97.2102 15.5568C97.2102 15.9773 97.3655 16.2955 97.6761 16.5114C97.9867 16.7235 98.3826 16.8295 98.8636 16.8295ZM111.604 11.4034L110.064 11.6761C110 11.4792 109.897 11.2917 109.757 11.1136C109.621 10.9356 109.435 10.7898 109.2 10.6761C108.965 10.5625 108.672 10.5057 108.32 10.5057C107.839 10.5057 107.437 10.6136 107.115 10.8295C106.793 11.0417 106.632 11.3163 106.632 11.6534C106.632 11.9451 106.74 12.1799 106.956 12.358C107.172 12.536 107.52 12.6818 108.001 12.7955L109.388 13.1136C110.191 13.2992 110.789 13.5852 111.183 13.9716C111.577 14.358 111.774 14.8598 111.774 15.4773C111.774 16 111.623 16.4659 111.32 16.875C111.02 17.2803 110.602 17.5985 110.064 17.8295C109.53 18.0606 108.911 18.1761 108.206 18.1761C107.229 18.1761 106.431 17.9678 105.814 17.5511C105.196 17.1307 104.818 16.5341 104.678 15.7614L106.32 15.5114C106.422 15.9394 106.632 16.2633 106.95 16.483C107.268 16.6989 107.683 16.8068 108.195 16.8068C108.751 16.8068 109.196 16.6913 109.53 16.4602C109.863 16.2254 110.03 15.9394 110.03 15.6023C110.03 15.3295 109.928 15.1004 109.723 14.9148C109.522 14.7292 109.214 14.589 108.797 14.4943L107.32 14.1705C106.505 13.9848 105.903 13.6894 105.513 13.2841C105.126 12.8788 104.933 12.3655 104.933 11.7443C104.933 11.2292 105.077 10.7784 105.365 10.392C105.653 10.0057 106.051 9.70455 106.558 9.48864C107.066 9.26894 107.647 9.15909 108.303 9.15909C109.246 9.15909 109.988 9.36364 110.53 9.77273C111.071 10.178 111.429 10.7216 111.604 11.4034ZM127.678 10.1477H125.905C125.837 9.76894 125.71 9.43561 125.524 9.14773C125.339 8.85985 125.111 8.61553 124.842 8.41477C124.573 8.21401 124.272 8.0625 123.939 7.96023C123.609 7.85795 123.259 7.80682 122.888 7.80682C122.217 7.80682 121.617 7.97538 121.087 8.3125C120.56 8.64962 120.143 9.14394 119.837 9.79545C119.534 10.447 119.382 11.2424 119.382 12.1818C119.382 13.1288 119.534 13.928 119.837 14.5795C120.143 15.2311 120.562 15.7235 121.092 16.0568C121.623 16.3902 122.219 16.5568 122.882 16.5568C123.25 16.5568 123.598 16.5076 123.928 16.4091C124.261 16.3068 124.562 16.1572 124.831 15.9602C125.1 15.7633 125.327 15.5227 125.513 15.2386C125.702 14.9508 125.833 14.6212 125.905 14.25L127.678 14.2557C127.583 14.8277 127.399 15.3542 127.126 15.8352C126.857 16.3125 126.511 16.7254 126.087 17.0739C125.666 17.4186 125.185 17.6856 124.643 17.875C124.102 18.0644 123.511 18.1591 122.871 18.1591C121.863 18.1591 120.965 17.9205 120.178 17.4432C119.39 16.9621 118.768 16.2746 118.314 15.3807C117.863 14.4867 117.638 13.4205 117.638 12.1818C117.638 10.9394 117.865 9.87311 118.32 8.98295C118.774 8.08901 119.395 7.40341 120.183 6.92614C120.971 6.44508 121.867 6.20455 122.871 6.20455C123.488 6.20455 124.064 6.29356 124.598 6.47159C125.136 6.64583 125.619 6.90341 126.047 7.24432C126.475 7.58144 126.829 7.99432 127.109 8.48295C127.39 8.9678 127.579 9.52273 127.678 10.1477ZM136.125 9.42045C136.064 8.88258 135.814 8.46591 135.375 8.17045C134.936 7.87121 134.383 7.72159 133.716 7.72159C133.239 7.72159 132.826 7.79735 132.477 7.94886C132.129 8.09659 131.858 8.30114 131.665 8.5625C131.475 8.82008 131.381 9.11364 131.381 9.44318C131.381 9.7197 131.445 9.95833 131.574 10.1591C131.706 10.3598 131.879 10.5284 132.091 10.6648C132.307 10.7973 132.538 10.9091 132.784 11C133.03 11.0871 133.267 11.1591 133.494 11.2159L134.631 11.5114C135.002 11.6023 135.383 11.7254 135.773 11.8807C136.163 12.036 136.525 12.2405 136.858 12.4943C137.191 12.7481 137.46 13.0625 137.665 13.4375C137.873 13.8125 137.977 14.2614 137.977 14.7841C137.977 15.4432 137.807 16.0284 137.466 16.5398C137.129 17.0511 136.638 17.4545 135.994 17.75C135.354 18.0455 134.58 18.1932 133.67 18.1932C132.799 18.1932 132.045 18.0549 131.409 17.7784C130.773 17.5019 130.275 17.1098 129.915 16.6023C129.555 16.0909 129.356 15.4848 129.318 14.7841H131.08C131.114 15.2045 131.25 15.5549 131.489 15.8352C131.731 16.1117 132.04 16.3182 132.415 16.4545C132.794 16.5871 133.208 16.6534 133.659 16.6534C134.155 16.6534 134.597 16.5758 134.983 16.4205C135.373 16.2614 135.68 16.0417 135.903 15.7614C136.127 15.4773 136.239 15.1458 136.239 14.767C136.239 14.4223 136.14 14.1402 135.943 13.9205C135.75 13.7008 135.487 13.5189 135.153 13.375C134.824 13.2311 134.451 13.1042 134.034 12.9943L132.659 12.6193C131.727 12.3655 130.989 11.9924 130.443 11.5C129.902 11.0076 129.631 10.3561 129.631 9.54545C129.631 8.875 129.813 8.28977 130.176 7.78977C130.54 7.28977 131.032 6.90151 131.653 6.625C132.275 6.3447 132.975 6.20455 133.756 6.20455C134.544 6.20455 135.239 6.3428 135.841 6.61932C136.447 6.89583 136.924 7.27652 137.273 7.76136C137.621 8.24242 137.803 8.79545 137.818 9.42045H136.125ZM141.092 6.36364L144.331 15.8409H144.462L147.7 6.36364H149.598L145.411 18H143.382L139.195 6.36364H141.092Z" fill="#48A43F"/>
<path d="M21 5C21 3.897 20.103 3 19 3H5C3.897 3 3 3.897 3 5V19C3 20.103 3.897 21 5 21H19C20.103 21 21 20.103 21 19V5ZM5 19V5H19L19.002 19H5Z" fill="#48A43F"/>
<path d="M7 7H8.998V9H7V7ZM11 7H17V9H11V7ZM7 11H8.998V13H7V11ZM11 11H17V13H11V11ZM7 15H8.998V17H7V15ZM11 15H17V17H11V15Z" fill="#48A43F"/>
</svg>
