<svg width="148" height="24" viewBox="0 0 148 24" fill="none" xmlns="http://www.w3.org/2000/svg">
<path d="M22.5 13.5V12H18V19.5H19.5V16.5H21.75V15H19.5V13.5H22.5Z" fill="#C71C2D"/>
<path d="M14.25 19.5H11.25V12H14.25C14.8465 12.0007 15.4185 12.2379 15.8403 12.6597C16.2621 13.0815 16.4993 13.6535 16.5 14.25V17.25C16.4993 17.8465 16.2621 18.4185 15.8403 18.8403C15.4185 19.2621 14.8465 19.4993 14.25 19.5ZM12.75 18H14.25C14.4488 17.9998 14.6395 17.9207 14.7801 17.7801C14.9207 17.6395 14.9998 17.4488 15 17.25V14.25C14.9998 14.0512 14.9207 13.8605 14.7801 13.7199C14.6395 13.5793 14.4488 13.5002 14.25 13.5H12.75V18Z" fill="#C71C2D"/>
<path d="M8.25 12H4.5V19.5H6V17.25H8.25C8.64766 17.2495 9.02888 17.0913 9.31007 16.8101C9.59126 16.5289 9.74946 16.1477 9.75 15.75V13.5C9.74954 13.1023 9.59136 12.721 9.31016 12.4398C9.02895 12.1586 8.64768 12.0005 8.25 12ZM6 15.75V13.5H8.25L8.25075 15.75H6Z" fill="#C71C2D"/>
<path d="M16.5 10.4998V7.49977C16.5027 7.4012 16.484 7.30321 16.4451 7.21258C16.4063 7.12194 16.3482 7.04081 16.275 6.97477L11.025 1.72477C10.959 1.65152 10.8778 1.59346 10.7872 1.55462C10.6966 1.51577 10.5986 1.49706 10.5 1.49977H3C2.60253 1.50094 2.22168 1.65935 1.94063 1.9404C1.65958 2.22145 1.50117 2.6023 1.5 2.99977V20.9998C1.5 21.3976 1.65804 21.7791 1.93934 22.0604C2.22064 22.3417 2.60218 22.4998 3 22.4998H15V20.9998H3V2.99977H9V7.49977C9.00117 7.89723 9.15958 8.27809 9.44063 8.55914C9.72168 8.84019 10.1025 8.9986 10.5 8.99977H15V10.4998H16.5ZM10.5 7.49977V3.29977L14.7 7.49977H10.5Z" fill="#C71C2D"/>
<path d="M41.2784 18V6.36364H48.5739V7.875H43.0341V11.4205H48.1932V12.9261H43.0341V16.4886H48.642V18H41.2784ZM52.1236 9.27273L54.0497 12.6705L55.9929 9.27273H57.8509L55.1293 13.6364L57.8736 18H56.0156L54.0497 14.7386L52.0895 18H50.2259L52.9418 13.6364L50.2599 9.27273H52.1236ZM59.5952 21.2727V9.27273H61.2543V10.6875H61.3963C61.4948 10.5057 61.6368 10.2955 61.8224 10.0568C62.008 9.81818 62.2656 9.60985 62.5952 9.43182C62.9247 9.25 63.3603 9.15909 63.902 9.15909C64.6065 9.15909 65.2353 9.33712 65.7884 9.69318C66.3414 10.0492 66.7751 10.5625 67.0895 11.233C67.4077 11.9034 67.5668 12.7102 67.5668 13.6534C67.5668 14.5966 67.4096 15.4053 67.0952 16.0795C66.7808 16.75 66.349 17.267 65.7997 17.6307C65.2505 17.9905 64.6236 18.1705 63.919 18.1705C63.3887 18.1705 62.955 18.0814 62.6179 17.9034C62.2846 17.7254 62.0232 17.517 61.8338 17.2784C61.6444 17.0398 61.4986 16.8277 61.3963 16.642H61.294V21.2727H59.5952ZM61.2599 13.6364C61.2599 14.25 61.349 14.7879 61.527 15.25C61.705 15.7121 61.9626 16.0739 62.2997 16.3352C62.6368 16.5928 63.0497 16.7216 63.5384 16.7216C64.0459 16.7216 64.4702 16.5871 64.8111 16.3182C65.152 16.0455 65.4096 15.6761 65.5838 15.2102C65.7618 14.7443 65.8509 14.2197 65.8509 13.6364C65.8509 13.0606 65.7637 12.5436 65.5895 12.0852C65.419 11.6269 65.1615 11.2652 64.8168 11C64.4759 10.7348 64.0497 10.6023 63.5384 10.6023C63.0459 10.6023 62.6293 10.7292 62.2884 10.983C61.9512 11.2367 61.6955 11.5909 61.5213 12.0455C61.3471 12.5 61.2599 13.0303 61.2599 13.6364ZM73.1463 18.1761C72.3281 18.1761 71.6141 17.9886 71.0043 17.6136C70.3944 17.2386 69.9209 16.714 69.5838 16.0398C69.2467 15.3655 69.0781 14.5777 69.0781 13.6761C69.0781 12.7708 69.2467 11.9792 69.5838 11.3011C69.9209 10.6231 70.3944 10.0966 71.0043 9.72159C71.6141 9.34659 72.3281 9.15909 73.1463 9.15909C73.9645 9.15909 74.6785 9.34659 75.2884 9.72159C75.8982 10.0966 76.3717 10.6231 76.7088 11.3011C77.0459 11.9792 77.2145 12.7708 77.2145 13.6761C77.2145 14.5777 77.0459 15.3655 76.7088 16.0398C76.3717 16.714 75.8982 17.2386 75.2884 17.6136C74.6785 17.9886 73.9645 18.1761 73.1463 18.1761ZM73.152 16.75C73.6823 16.75 74.1217 16.6098 74.4702 16.3295C74.8187 16.0492 75.0762 15.6761 75.2429 15.2102C75.4134 14.7443 75.4986 14.2311 75.4986 13.6705C75.4986 13.1136 75.4134 12.6023 75.2429 12.1364C75.0762 11.6667 74.8187 11.2898 74.4702 11.0057C74.1217 10.7216 73.6823 10.5795 73.152 10.5795C72.6179 10.5795 72.1747 10.7216 71.8224 11.0057C71.474 11.2898 71.2145 11.6667 71.044 12.1364C70.8774 12.6023 70.794 13.1136 70.794 13.6705C70.794 14.2311 70.8774 14.7443 71.044 15.2102C71.2145 15.6761 71.474 16.0492 71.8224 16.3295C72.1747 16.6098 72.6179 16.75 73.152 16.75ZM79.1108 18V9.27273H80.7528V10.6591H80.8438C81.0028 10.1894 81.2831 9.82008 81.6847 9.55114C82.09 9.27841 82.5483 9.14205 83.0597 9.14205C83.1657 9.14205 83.2907 9.14583 83.4347 9.15341C83.5824 9.16098 83.6979 9.17045 83.7812 9.18182V10.8068C83.7131 10.7879 83.5919 10.767 83.4176 10.7443C83.2434 10.7178 83.0691 10.7045 82.8949 10.7045C82.4934 10.7045 82.1354 10.7898 81.821 10.9602C81.5104 11.1269 81.2642 11.3598 81.0824 11.6591C80.9006 11.9545 80.8097 12.2917 80.8097 12.6705V18H79.1108ZM89.8409 9.27273V10.6364H85.0739V9.27273H89.8409ZM86.3523 7.18182H88.0511V15.4375C88.0511 15.767 88.1004 16.0152 88.1989 16.1818C88.2973 16.3447 88.4242 16.4564 88.5795 16.517C88.7386 16.5739 88.911 16.6023 89.0966 16.6023C89.233 16.6023 89.3523 16.5928 89.4545 16.5739C89.5568 16.5549 89.6364 16.5398 89.6932 16.5284L90 17.9318C89.9015 17.9697 89.7614 18.0076 89.5795 18.0455C89.3977 18.0871 89.1705 18.1098 88.8977 18.1136C88.4508 18.1212 88.0341 18.0417 87.6477 17.875C87.2614 17.7083 86.9489 17.4508 86.7102 17.1023C86.4716 16.7538 86.3523 16.3163 86.3523 15.7898V7.18182ZM98.4943 18.1932C97.9413 18.1932 97.4413 18.0909 96.9943 17.8864C96.5473 17.678 96.1932 17.3769 95.9318 16.983C95.6742 16.589 95.5455 16.1061 95.5455 15.5341C95.5455 15.0417 95.6402 14.6364 95.8295 14.3182C96.0189 14 96.2746 13.7481 96.5966 13.5625C96.9186 13.3769 97.2784 13.2367 97.6761 13.142C98.0739 13.0473 98.4792 12.9754 98.892 12.9261C99.4148 12.8655 99.839 12.8163 100.165 12.7784C100.491 12.7367 100.727 12.6705 100.875 12.5795C101.023 12.4886 101.097 12.3409 101.097 12.1364V12.0966C101.097 11.6004 100.956 11.2159 100.676 10.9432C100.4 10.6705 99.9867 10.5341 99.4375 10.5341C98.8655 10.5341 98.4148 10.661 98.0852 10.9148C97.7595 11.1648 97.5341 11.4432 97.4091 11.75L95.8125 11.3864C96.0019 10.8561 96.2784 10.428 96.642 10.1023C97.0095 9.77273 97.4318 9.53409 97.9091 9.38636C98.3864 9.23485 98.8883 9.15909 99.4148 9.15909C99.7633 9.15909 100.133 9.20076 100.523 9.28409C100.917 9.36364 101.284 9.51136 101.625 9.72727C101.97 9.94318 102.252 10.2519 102.472 10.6534C102.691 11.0511 102.801 11.5682 102.801 12.2045V18H101.142V16.8068H101.074C100.964 17.0265 100.799 17.2424 100.58 17.4545C100.36 17.6667 100.078 17.8428 99.733 17.983C99.3883 18.1231 98.9754 18.1932 98.4943 18.1932ZM98.8636 16.8295C99.3333 16.8295 99.7348 16.7367 100.068 16.5511C100.405 16.3655 100.661 16.1231 100.835 15.8239C101.013 15.5208 101.102 15.197 101.102 14.8523V13.7273C101.042 13.7879 100.924 13.8447 100.75 13.8977C100.58 13.947 100.384 13.9905 100.165 14.0284C99.9451 14.0625 99.7311 14.0947 99.5227 14.125C99.3144 14.1515 99.1402 14.1742 99 14.1932C98.6705 14.2348 98.3693 14.3049 98.0966 14.4034C97.8277 14.5019 97.6117 14.6439 97.4489 14.8295C97.2898 15.0114 97.2102 15.2538 97.2102 15.5568C97.2102 15.9773 97.3655 16.2955 97.6761 16.5114C97.9867 16.7235 98.3826 16.8295 98.8636 16.8295ZM111.604 11.4034L110.064 11.6761C110 11.4792 109.897 11.2917 109.757 11.1136C109.621 10.9356 109.435 10.7898 109.2 10.6761C108.965 10.5625 108.672 10.5057 108.32 10.5057C107.839 10.5057 107.437 10.6136 107.115 10.8295C106.793 11.0417 106.632 11.3163 106.632 11.6534C106.632 11.9451 106.74 12.1799 106.956 12.358C107.172 12.536 107.52 12.6818 108.001 12.7955L109.388 13.1136C110.191 13.2992 110.789 13.5852 111.183 13.9716C111.577 14.358 111.774 14.8598 111.774 15.4773C111.774 16 111.623 16.4659 111.32 16.875C111.02 17.2803 110.602 17.5985 110.064 17.8295C109.53 18.0606 108.911 18.1761 108.206 18.1761C107.229 18.1761 106.431 17.9678 105.814 17.5511C105.196 17.1307 104.818 16.5341 104.678 15.7614L106.32 15.5114C106.422 15.9394 106.632 16.2633 106.95 16.483C107.268 16.6989 107.683 16.8068 108.195 16.8068C108.751 16.8068 109.196 16.6913 109.53 16.4602C109.863 16.2254 110.03 15.9394 110.03 15.6023C110.03 15.3295 109.928 15.1004 109.723 14.9148C109.522 14.7292 109.214 14.589 108.797 14.4943L107.32 14.1705C106.505 13.9848 105.903 13.6894 105.513 13.2841C105.126 12.8788 104.933 12.3655 104.933 11.7443C104.933 11.2292 105.077 10.7784 105.365 10.392C105.653 10.0057 106.051 9.70455 106.558 9.48864C107.066 9.26894 107.647 9.15909 108.303 9.15909C109.246 9.15909 109.988 9.36364 110.53 9.77273C111.071 10.178 111.429 10.7216 111.604 11.4034ZM118.013 18V6.36364H122.161C123.066 6.36364 123.816 6.52841 124.411 6.85795C125.005 7.1875 125.45 7.63826 125.746 8.21023C126.041 8.77841 126.189 9.41856 126.189 10.1307C126.189 10.8466 126.039 11.4905 125.74 12.0625C125.445 12.6307 124.998 13.0814 124.399 13.4148C123.804 13.7443 123.056 13.9091 122.155 13.9091H119.303V12.4205H121.996C122.568 12.4205 123.032 12.322 123.388 12.125C123.744 11.9242 124.005 11.6515 124.172 11.3068C124.339 10.9621 124.422 10.5701 124.422 10.1307C124.422 9.69129 124.339 9.30114 124.172 8.96023C124.005 8.61932 123.742 8.35227 123.382 8.15909C123.026 7.96591 122.556 7.86932 121.973 7.86932H119.768V18H118.013ZM132.014 18H128.247V6.36364H132.134C133.274 6.36364 134.253 6.59659 135.071 7.0625C135.889 7.52462 136.516 8.18939 136.952 9.05682C137.391 9.92045 137.611 10.9564 137.611 12.1648C137.611 13.3769 137.389 14.4186 136.946 15.2898C136.507 16.161 135.87 16.8314 135.037 17.3011C134.204 17.767 133.196 18 132.014 18ZM130.003 16.4659H131.918C132.804 16.4659 133.541 16.2992 134.128 15.9659C134.715 15.6288 135.154 15.142 135.446 14.5057C135.738 13.8655 135.884 13.0852 135.884 12.1648C135.884 11.2519 135.738 10.4773 135.446 9.84091C135.158 9.20455 134.728 8.72159 134.156 8.39205C133.584 8.0625 132.874 7.89773 132.026 7.89773H130.003V16.4659ZM139.794 18V6.36364H147.01V7.875H141.55V11.4205H146.493V12.9261H141.55V18H139.794Z" fill="#C71C2D"/>
</svg>
