<svg width="38" height="36" viewBox="0 0 38 36" fill="none" xmlns="http://www.w3.org/2000/svg">
<path d="M28.1667 31.6667H9.83332V33.5C9.83332 33.9862 9.64017 34.4525 9.29635 34.7964C8.95254 35.1402 8.48622 35.3333 7.99999 35.3333H4.33332C3.84709 35.3333 3.38078 35.1402 3.03696 34.7964C2.69314 34.4525 2.49999 33.9862 2.49999 33.5V17H0.666656V9.66667H2.49999V4.16667C2.49999 3.19421 2.8863 2.26158 3.57393 1.57394C4.26156 0.886308 5.1942 0.5 6.16666 0.5H31.8333C32.8058 0.5 33.7384 0.886308 34.426 1.57394C35.1137 2.26158 35.5 3.19421 35.5 4.16667V9.66667H37.3333V17H35.5V33.5C35.5 33.9862 35.3068 34.4525 34.963 34.7964C34.6192 35.1402 34.1529 35.3333 33.6667 35.3333H30C29.5138 35.3333 29.0474 35.1402 28.7036 34.7964C28.3598 34.4525 28.1667 33.9862 28.1667 33.5V31.6667ZM6.16666 4.16667V17H31.8333V4.16667H6.16666ZM10.75 28C11.4793 28 12.1788 27.7103 12.6945 27.1945C13.2103 26.6788 13.5 25.9793 13.5 25.25C13.5 24.5207 13.2103 23.8212 12.6945 23.3055C12.1788 22.7897 11.4793 22.5 10.75 22.5C10.0206 22.5 9.32117 22.7897 8.80545 23.3055C8.28972 23.8212 7.99999 24.5207 7.99999 25.25C7.99999 25.9793 8.28972 26.6788 8.80545 27.1945C9.32117 27.7103 10.0206 28 10.75 28ZM27.25 28C27.9793 28 28.6788 27.7103 29.1945 27.1945C29.7103 26.6788 30 25.9793 30 25.25C30 24.5207 29.7103 23.8212 29.1945 23.3055C28.6788 22.7897 27.9793 22.5 27.25 22.5C26.5206 22.5 25.8212 22.7897 25.3054 23.3055C24.7897 23.8212 24.5 24.5207 24.5 25.25C24.5 25.9793 24.7897 26.6788 25.3054 27.1945C25.8212 27.7103 26.5206 28 27.25 28Z" fill="#F04935"/>
</svg>
