<svg width="38" height="34" viewBox="0 0 38 34" fill="none" xmlns="http://www.w3.org/2000/svg">
<path d="M17.1667 33.5C17.1667 32.7707 16.8769 32.0712 16.3612 31.5555C15.8455 31.0397 15.146 30.75 14.4167 30.75C13.6873 30.75 12.9878 31.0397 12.4721 31.5555C11.9564 32.0712 11.6667 32.7707 11.6667 33.5H2.5C2.01377 33.5 1.54745 33.3068 1.20363 32.963C0.859818 32.6192 0.666664 32.1529 0.666664 31.6667V2.33333C0.666664 1.8471 0.859818 1.38079 1.20363 1.03697C1.54745 0.693154 2.01377 0.5 2.5 0.5H11.6667C11.6667 1.22935 11.9564 1.92882 12.4721 2.44454C12.9878 2.96027 13.6873 3.25 14.4167 3.25C15.146 3.25 15.8455 2.96027 16.3612 2.44454C16.8769 1.92882 17.1667 1.22935 17.1667 0.5H35.5C35.9862 0.5 36.4525 0.693154 36.7964 1.03697C37.1402 1.38079 37.3333 1.8471 37.3333 2.33333V12.4167C36.1178 12.4167 34.952 12.8996 34.0924 13.7591C33.2329 14.6186 32.75 15.7844 32.75 17C32.75 18.2156 33.2329 19.3814 34.0924 20.2409C34.952 21.1004 36.1178 21.5833 37.3333 21.5833V31.6667C37.3333 32.1529 37.1402 32.6192 36.7964 32.963C36.4525 33.3068 35.9862 33.5 35.5 33.5H17.1667ZM14.4167 14.25C15.146 14.25 15.8455 13.9603 16.3612 13.4445C16.8769 12.9288 17.1667 12.2293 17.1667 11.5C17.1667 10.7707 16.8769 10.0712 16.3612 9.55546C15.8455 9.03973 15.146 8.75 14.4167 8.75C13.6873 8.75 12.9878 9.03973 12.4721 9.55546C11.9564 10.0712 11.6667 10.7707 11.6667 11.5C11.6667 12.2293 11.9564 12.9288 12.4721 13.4445C12.9878 13.9603 13.6873 14.25 14.4167 14.25ZM14.4167 25.25C15.146 25.25 15.8455 24.9603 16.3612 24.4445C16.8769 23.9288 17.1667 23.2293 17.1667 22.5C17.1667 21.7707 16.8769 21.0712 16.3612 20.5555C15.8455 20.0397 15.146 19.75 14.4167 19.75C13.6873 19.75 12.9878 20.0397 12.4721 20.5555C11.9564 21.0712 11.6667 21.7707 11.6667 22.5C11.6667 23.2293 11.9564 23.9288 12.4721 24.4445C12.9878 24.9603 13.6873 25.25 14.4167 25.25Z" fill="#F04935"/>
</svg>
