<svg width="34" height="34" viewBox="0 0 34 34" fill="none" xmlns="http://www.w3.org/2000/svg">
<circle cx="17" cy="17" r="17" fill="#F04935"/>
<path d="M21 14.3333H22.3333C22.5101 14.3333 22.6797 14.4036 22.8047 14.5286C22.9298 14.6536 23 14.8232 23 15V23C23 23.1768 22.9298 23.3464 22.8047 23.4714C22.6797 23.5964 22.5101 23.6667 22.3333 23.6667H11.6667C11.4899 23.6667 11.3203 23.5964 11.1953 23.4714C11.0702 23.3464 11 23.1768 11 23V15C11 14.8232 11.0702 14.6536 11.1953 14.5286C11.3203 14.4036 11.4899 14.3333 11.6667 14.3333H13V13.6667C13 12.6058 13.4214 11.5884 14.1716 10.8382C14.9217 10.0881 15.9391 9.66667 17 9.66667C18.0609 9.66667 19.0783 10.0881 19.8284 10.8382C20.5786 11.5884 21 12.6058 21 13.6667V14.3333ZM19.6667 14.3333V13.6667C19.6667 12.9594 19.3857 12.2812 18.8856 11.7811C18.3855 11.281 17.7072 11 17 11C16.2928 11 15.6145 11.281 15.1144 11.7811C14.6143 12.2812 14.3333 12.9594 14.3333 13.6667V14.3333H19.6667ZM16.3333 18.3333V19.6667H17.6667V18.3333H16.3333ZM13.6667 18.3333V19.6667H15V18.3333H13.6667ZM19 18.3333V19.6667H20.3333V18.3333H19Z" fill="white"/>
</svg>
