<svg width="38" height="38" viewBox="0 0 38 38" fill="none" xmlns="http://www.w3.org/2000/svg">
<path d="M19 17.1667C21.4312 17.1667 23.7627 18.1324 25.4818 19.8515C27.2009 21.5706 28.1667 23.9022 28.1667 26.3333V37.3333H9.83334V26.3333C9.83334 23.9022 10.7991 21.5706 12.5182 19.8515C14.2373 18.1324 16.5689 17.1667 19 17.1667ZM6.69467 22.6777C6.40291 23.6618 6.23056 24.6774 6.18134 25.7027L6.16667 26.3333V37.3333H0.666672V29.0833C0.666311 27.5022 1.24972 25.9766 2.305 24.7992C3.36028 23.6218 4.81312 22.8754 6.38484 22.7033L6.69651 22.6777H6.69467ZM31.3053 22.6777C32.9368 22.7771 34.4689 23.4952 35.5891 24.6856C36.7093 25.8759 37.3331 27.4488 37.3333 29.0833V37.3333H31.8333V26.3333C31.8333 25.0628 31.65 23.8363 31.3053 22.6777ZM7.08334 11.6667C8.29891 11.6667 9.4647 12.1495 10.3242 13.0091C11.1838 13.8686 11.6667 15.0344 11.6667 16.25C11.6667 17.4656 11.1838 18.6314 10.3242 19.4909C9.4647 20.3504 8.29891 20.8333 7.08334 20.8333C5.86776 20.8333 4.70197 20.3504 3.84243 19.4909C2.98289 18.6314 2.50001 17.4656 2.50001 16.25C2.50001 15.0344 2.98289 13.8686 3.84243 13.0091C4.70197 12.1495 5.86776 11.6667 7.08334 11.6667ZM30.9167 11.6667C32.1322 11.6667 33.298 12.1495 34.1576 13.0091C35.0171 13.8686 35.5 15.0344 35.5 16.25C35.5 17.4656 35.0171 18.6314 34.1576 19.4909C33.298 20.3504 32.1322 20.8333 30.9167 20.8333C29.7011 20.8333 28.5353 20.3504 27.6758 19.4909C26.8162 18.6314 26.3333 17.4656 26.3333 16.25C26.3333 15.0344 26.8162 13.8686 27.6758 13.0091C28.5353 12.1495 29.7011 11.6667 30.9167 11.6667ZM19 0.666656C20.9449 0.666656 22.8102 1.43927 24.1855 2.81454C25.5607 4.18981 26.3333 6.05507 26.3333 7.99999C26.3333 9.94491 25.5607 11.8102 24.1855 13.1854C22.8102 14.5607 20.9449 15.3333 19 15.3333C17.0551 15.3333 15.1898 14.5607 13.8146 13.1854C12.4393 11.8102 11.6667 9.94491 11.6667 7.99999C11.6667 6.05507 12.4393 4.18981 13.8146 2.81454C15.1898 1.43927 17.0551 0.666656 19 0.666656Z" fill="#F04935"/>
</svg>
