<svg width="194" height="48" viewBox="0 0 194 48" fill="none" xmlns="http://www.w3.org/2000/svg">
<path d="M102.62 41L104.793 27.9091H109.587C110.516 27.9091 111.26 28.0625 111.818 28.3693C112.381 28.6719 112.768 29.0831 112.982 29.603C113.195 30.1186 113.246 30.7003 113.135 31.348C113.045 31.8935 112.869 32.3516 112.604 32.7223C112.344 33.093 112.029 33.3913 111.658 33.6172C111.288 33.843 110.898 34.0071 110.489 34.1094L110.463 34.2372C110.889 34.2585 111.288 34.3991 111.658 34.6591C112.033 34.9148 112.319 35.2791 112.515 35.7521C112.711 36.2251 112.756 36.8004 112.649 37.478C112.534 38.147 112.274 38.7479 111.869 39.2805C111.469 39.8089 110.917 40.2287 110.214 40.5398C109.511 40.8466 108.652 41 107.638 41H102.62ZM104.876 39.3061H107.727C108.673 39.3061 109.381 39.1229 109.849 38.7564C110.322 38.3899 110.608 37.9318 110.706 37.3821C110.77 36.9687 110.725 36.5895 110.572 36.2443C110.423 35.8991 110.171 35.6243 109.817 35.4197C109.468 35.2152 109.029 35.1129 108.501 35.1129H105.58L104.876 39.3061ZM105.842 33.5724H108.482C108.925 33.5724 109.338 33.4872 109.722 33.3168C110.109 33.1463 110.431 32.9055 110.687 32.5945C110.947 32.2834 111.109 31.919 111.173 31.5014C111.266 30.956 111.153 30.5021 110.834 30.1399C110.518 29.7734 109.971 29.5902 109.191 29.5902H106.494L105.842 33.5724ZM121.141 36.9283L122.1 31.1818H124.017L122.381 41H120.502L120.789 39.2997H120.687C120.38 39.8239 119.946 40.2607 119.383 40.6101C118.825 40.9553 118.177 41.1278 117.44 41.1278C116.809 41.1278 116.275 40.9893 115.836 40.7124C115.401 40.4311 115.092 40.0156 114.909 39.4659C114.725 38.9162 114.7 38.2365 114.832 37.4268L115.88 31.1818H117.792L116.788 37.1967C116.681 37.8658 116.782 38.3984 117.088 38.7947C117.395 39.1911 117.843 39.3892 118.431 39.3892C118.789 39.3892 119.159 39.2997 119.543 39.1207C119.926 38.9418 120.265 38.6712 120.559 38.3089C120.858 37.9467 121.051 37.4865 121.141 36.9283ZM133.546 33.5788L131.763 33.8857C131.725 33.6598 131.646 33.4467 131.526 33.2464C131.411 33.0462 131.235 32.8842 130.996 32.7607C130.757 32.6328 130.44 32.5689 130.044 32.5689C129.494 32.5689 129.012 32.6946 128.599 32.946C128.19 33.1974 127.955 33.517 127.896 33.9048C127.84 34.2202 127.915 34.4759 128.119 34.6719C128.324 34.8636 128.684 35.0234 129.2 35.1513L130.708 35.5092C131.578 35.718 132.2 36.044 132.575 36.4872C132.954 36.9261 133.086 37.4972 132.971 38.2003C132.873 38.7841 132.617 39.3018 132.204 39.7536C131.795 40.2053 131.271 40.5589 130.632 40.8146C129.992 41.0703 129.281 41.1982 128.497 41.1982C127.38 41.1982 126.511 40.9616 125.889 40.4886C125.267 40.0156 124.947 39.3466 124.93 38.4815L126.822 38.2003C126.856 38.6818 127.029 39.0462 127.34 39.2933C127.655 39.5362 128.092 39.6577 128.65 39.6577C129.289 39.6619 129.824 39.5277 130.254 39.255C130.685 38.9822 130.93 38.652 130.99 38.2642C131.041 37.9616 130.972 37.7102 130.785 37.5099C130.602 37.3097 130.278 37.1562 129.813 37.0497L128.228 36.6854C127.342 36.4766 126.715 36.1399 126.349 35.6754C125.982 35.2109 125.859 34.6271 125.978 33.924C126.072 33.3487 126.315 32.848 126.707 32.4219C127.103 31.9915 127.604 31.657 128.209 31.4183C128.814 31.1754 129.483 31.054 130.216 31.054C131.286 31.054 132.089 31.2841 132.626 31.7443C133.163 32.2003 133.47 32.8118 133.546 33.5788ZM143.544 41.1982C142.61 41.1982 141.83 40.9851 141.204 40.5589C140.578 40.1286 140.137 39.5277 139.881 38.7564C139.629 37.9808 139.587 37.0795 139.753 36.0526C139.915 35.0469 140.241 34.169 140.731 33.419C141.225 32.669 141.843 32.0874 142.585 31.674C143.33 31.2607 144.159 31.054 145.071 31.054C146.004 31.054 146.782 31.2692 147.404 31.6996C148.031 32.13 148.472 32.733 148.727 33.5085C148.983 34.2841 149.028 35.1875 148.862 36.2188C148.7 37.2159 148.369 38.0895 147.871 38.8395C147.377 39.5852 146.759 40.1648 146.017 40.5781C145.276 40.9915 144.451 41.1982 143.544 41.1982ZM143.652 39.5938C144.266 39.5938 144.801 39.4318 145.257 39.108C145.717 38.7841 146.092 38.3537 146.382 37.8168C146.671 37.2798 146.869 36.6918 146.976 36.0526C147.074 35.4347 147.072 34.87 146.97 34.3587C146.872 33.843 146.659 33.4297 146.33 33.1186C146.002 32.8075 145.546 32.652 144.963 32.652C144.349 32.652 143.81 32.8161 143.345 33.1442C142.885 33.468 142.51 33.9006 142.22 34.4418C141.935 34.983 141.741 35.5732 141.639 36.2124C141.541 36.826 141.541 37.3906 141.639 37.9062C141.737 38.4176 141.95 38.8267 142.278 39.1335C142.606 39.4403 143.064 39.5938 143.652 39.5938ZM152.039 41L150.786 31.1818H152.761L153.483 38.392H153.579L156.711 31.1818H158.686L159.402 38.3601H159.498L162.611 31.1818H164.586L160.067 41H158.117L157.299 33.9112H157.152L153.982 41H152.039ZM167.64 35.1705L166.681 41H164.77L166.406 31.1818H168.241L167.972 32.7798H168.094C168.405 32.2557 168.829 31.8381 169.366 31.527C169.907 31.2116 170.546 31.054 171.283 31.054C171.948 31.054 172.506 31.1946 172.958 31.4759C173.414 31.7528 173.736 32.1662 173.923 32.7159C174.115 33.2656 174.145 33.9453 174.013 34.755L172.964 41H171.053L172.057 34.9851C172.172 34.2734 172.078 33.7173 171.776 33.3168C171.477 32.9119 171.002 32.7095 170.35 32.7095C169.907 32.7095 169.496 32.8054 169.116 32.9972C168.741 33.1889 168.424 33.4702 168.164 33.8409C167.908 34.2074 167.734 34.6506 167.64 35.1705ZM179.727 41.1982C178.764 41.1982 177.967 40.9915 177.337 40.5781C176.71 40.1605 176.271 39.5746 176.02 38.8203C175.768 38.0618 175.728 37.1733 175.898 36.1548C176.065 35.1491 176.399 34.2628 176.902 33.4957C177.405 32.7287 178.031 32.13 178.781 31.6996C179.536 31.2692 180.369 31.054 181.281 31.054C181.835 31.054 182.357 31.1456 182.847 31.3288C183.341 31.5121 183.761 31.7997 184.106 32.1918C184.451 32.5838 184.69 33.093 184.822 33.7195C184.958 34.3416 184.954 35.098 184.809 35.9886L184.7 36.6662H176.889L177.113 35.2344H183.045C183.134 34.7315 183.111 34.2862 182.974 33.8984C182.838 33.5064 182.604 33.1974 182.271 32.9716C181.943 32.7457 181.53 32.6328 181.031 32.6328C180.52 32.6328 180.043 32.767 179.599 33.0355C179.156 33.304 178.786 33.647 178.487 34.0646C178.193 34.478 178.008 34.9041 177.931 35.343L177.707 36.6534C177.597 37.3693 177.616 37.9446 177.765 38.3793C177.918 38.8139 178.187 39.1293 178.57 39.3253C178.954 39.5213 179.433 39.6193 180.009 39.6193C180.379 39.6193 180.722 39.5682 181.038 39.4659C181.357 39.3594 181.641 39.2038 181.888 38.9993C182.135 38.7905 182.342 38.5305 182.508 38.2195L184.259 38.5455C184.025 39.0781 183.688 39.5447 183.249 39.9453C182.81 40.3416 182.293 40.6506 181.696 40.8722C181.104 41.0895 180.447 41.1982 179.727 41.1982ZM186.121 41L187.757 31.1818H189.605L189.343 32.7415H189.445C189.709 32.2131 190.095 31.7976 190.602 31.495C191.109 31.1882 191.65 31.0348 192.225 31.0348C192.349 31.0348 192.49 31.0391 192.647 31.0476C192.805 31.0518 192.933 31.0625 193.031 31.0795L192.724 32.9077C192.651 32.8864 192.519 32.8629 192.328 32.8374C192.136 32.8075 191.938 32.7926 191.733 32.7926C191.286 32.7926 190.87 32.8885 190.487 33.0803C190.103 33.2678 189.781 33.5298 189.521 33.8665C189.262 34.1989 189.093 34.5781 189.017 35.0043L188.032 41H186.121Z" fill="white"/>
<path d="M44.7771 37.766C43.9412 38.7916 42.9068 39.6288 41.7392 40.2249C40.6178 40.7819 39.3862 41.0668 38.1398 41.0577C35.9712 41.0577 34.1923 40.2222 32.8032 38.5512C31.414 36.8803 30.719 34.7112 30.7181 32.044C30.7181 28.7021 31.6591 25.9271 33.5411 23.7191C35.423 21.5111 37.7726 20.4075 40.5898 20.4084C41.8102 20.3876 43.0169 20.6736 44.1042 21.2412C45.1394 21.7973 46.0742 22.6554 46.9086 23.8156L47.3386 21.0211H53.6574L51.3427 35.9782C51.1544 37.1962 50.5476 38.3053 49.6316 39.1062C48.7157 39.9071 47.5505 40.3471 46.3458 40.3472H44.4612L44.7771 37.766ZM37.4271 31.3716C37.4271 32.6087 37.7947 33.6049 38.53 34.3603C39.2653 35.1156 40.2385 35.4919 41.4498 35.4892C42.7708 35.4892 43.8706 34.963 44.7492 33.9106C45.6278 32.8582 46.0671 31.5409 46.0671 29.9587C46.0671 28.7596 45.6995 27.7869 44.9642 27.0407C44.229 26.2944 43.2694 25.9208 42.0856 25.9199C41.4526 25.9065 40.8248 26.0386 40.2483 26.3064C39.6718 26.5742 39.1613 26.9708 38.7543 27.4672C37.8695 28.5015 37.4271 29.8029 37.4271 31.3716Z" fill="white"/>
<path d="M68.7489 40.3473L71.7391 21.0186H78.1335L77.6637 24.317C78.2494 23.0934 79.0347 22.162 80.0194 21.5226C81.0042 20.8832 82.1509 20.5662 83.4595 20.5716C83.6156 20.5727 83.7716 20.5823 83.9267 20.6001C84.1019 20.6192 84.3753 20.6613 84.7496 20.7251L83.4224 26.7908C82.9862 26.6894 82.5933 26.6129 82.2438 26.5612C81.9097 26.5119 81.5727 26.4864 81.2352 26.4852C79.9504 26.4852 78.9373 26.8968 78.1959 27.72C77.4544 28.5433 76.9465 29.8158 76.6723 31.5374L75.929 36.409C75.7612 37.5104 75.214 38.5139 74.3865 39.2384C73.5589 39.9629 72.5055 40.3606 71.4166 40.3596L68.7489 40.3473Z" fill="white"/>
<path d="M85.0295 40.3472L88.0025 21.0184H94.7141L92.4101 35.9062C92.2183 37.1443 91.6013 38.2718 90.67 39.0858C89.7387 39.8999 88.5542 40.3471 87.3296 40.3472H85.0295Z" fill="white"/>
<path d="M88.5066 15.2586C88.508 14.2946 88.8829 13.3706 89.5489 12.6891C90.2149 12.0076 91.1178 11.6243 92.0595 11.6232C93.093 11.6232 93.953 11.9674 94.6396 12.6557C94.9774 12.9933 95.2432 13.3989 95.4202 13.8468C95.5973 14.2948 95.6817 14.7755 95.6682 15.2586C95.6726 15.7449 95.5823 16.2273 95.4025 16.6774C95.2227 17.1276 94.9571 17.5366 94.6211 17.8806C94.2851 18.2245 93.8856 18.4964 93.4457 18.6804C93.0059 18.8644 92.5347 18.9569 92.0595 18.9523C91.5897 18.9594 91.1234 18.8664 90.6905 18.6793C90.2576 18.4922 89.8673 18.2151 89.5445 17.8655C89.209 17.5248 88.9442 17.1183 88.7659 16.6704C88.5875 16.2224 88.4994 15.7422 88.5066 15.2586Z" fill="white"/>
<path d="M66.2376 19.8464H59.6109L59.4344 21.0188H56.2942L55.5271 25.957H58.6686L56.4429 40.3476H59.0482C60.1715 40.3477 61.2579 39.9371 62.1118 39.1899C62.9656 38.4427 63.5307 37.408 63.7053 36.2721L65.286 25.9583H68.6703L69.4374 21.0202H66.0531L66.2376 19.8464Z" fill="white"/>
<path d="M66.9315 15.4122H60.2756L59.6107 19.8463H66.2361L66.9315 15.4122Z" fill="white"/>
<path d="M14.5794 4.46519C14.5721 3.89571 14.6781 3.33067 14.891 2.80447C15.1039 2.27827 15.4192 1.80194 15.8177 1.40448C16.2053 0.991359 16.6719 0.664491 17.1885 0.444303C17.705 0.224115 18.2604 0.115338 18.8198 0.124772C20.0541 0.124772 21.0805 0.535945 21.8989 1.35829C22.7174 2.18064 23.1266 3.21627 23.1266 4.46519C23.1374 5.04574 23.032 5.62242 22.817 6.15975C22.602 6.69709 22.2819 7.18373 21.8764 7.58975C21.4797 8.00485 21.0043 8.33251 20.4793 8.55258C19.9544 8.77266 19.391 8.88049 18.8238 8.86946C18.2634 8.87848 17.7073 8.76845 17.1906 8.54631C16.6739 8.32417 16.2077 7.99476 15.8217 7.57888C15.4205 7.17224 15.1036 6.68684 14.8902 6.15179C14.6767 5.61674 14.571 5.04307 14.5794 4.46519Z" fill="white"/>
<path d="M3.80494 27.9031C3.28601 27.9778 2.85733 28.0389 2.46846 28.255C2.09148 28.4321 1.76806 28.7098 1.53218 29.0591C1.29631 29.4083 1.15669 29.8162 1.12799 30.2397L2.67948 42.3494L3.05242 45.4074C3.06646 45.6043 3.10253 45.799 3.15993 45.9875C3.20693 46.139 3.27534 46.2828 3.36299 46.4141C3.5387 46.6787 3.78138 46.8896 4.06507 47.024C4.36584 47.1644 4.69354 47.234 5.02406 47.2277C5.35458 47.2213 5.67949 47.1392 5.97491 46.9873C6.24524 46.8558 6.47495 46.6505 6.63883 46.3941C6.80272 46.1377 6.89444 45.84 6.90394 45.5337L5.64045 33.4539L5.50773 32.1539L6.78582 32.018L14.1544 31.2151L15.9979 31.0263C16.5137 30.982 17.0227 30.8766 17.5149 30.7125C18.4001 30.3919 18.8752 29.8689 19.2097 28.8812C19.5136 27.9615 19.657 26.5813 19.9065 25.3708L20.5568 21.635L21.8588 14.1632L22.1853 12.3251C22.278 11.8319 22.282 11.3255 22.1972 10.8308C22.1722 10.6497 22.1088 10.4764 22.0113 10.3232C21.9139 10.1699 21.7848 10.0404 21.6332 9.94369C21.3199 9.74399 20.8275 9.64618 20.306 9.63395C18.1201 9.59999 15.8227 10.5333 14.3774 12.3251C13.6357 13.221 13.0996 14.2757 12.8086 15.4117C12.6743 16.0233 12.5755 16.6425 12.5127 17.266L12.2605 19.1842L11.2545 26.637C9.28361 27.1016 7.2875 27.3502 5.30335 27.6735L3.80494 27.9031Z" fill="white"/>
<path d="M31.5711 10.7441H25.2311L24.5303 15.2733L24.4785 15.6048L24.0087 18.5487C23.4261 22.2166 22.8235 26.0042 22.1918 29.7319C21.7936 32.0889 20.0683 33.7245 17.6793 34.003C16.4384 34.1484 14.8803 34.325 9.34454 34.4853L10.8323 40.9762C15.2652 40.9545 17.5625 40.5293 18.112 40.4451C23.7552 39.5783 27.3771 36.379 28.3102 31.4368C29.1065 27.2404 29.7502 22.9584 30.3872 18.743C30.5996 17.3364 30.8141 15.9295 31.0309 14.5221C31.0415 14.4582 31.0375 14.3985 31.0442 14.336L31.5711 10.7441Z" fill="white"/>
</svg>
